<svg width="223" height="41" viewBox="0 0 223 41" fill="none" xmlns="http://www.w3.org/2000/svg">
<path d="M0.193604 -6.10352e-05L10.5807 -6.09464e-05L10.5807 12.1553L11.0217 12.1553C12.0506 10.774 13.4225 9.82681 15.0393 9.31376C16.6562 8.80072 19.204 8.56392 22.6827 8.56392C26.1614 8.56392 28.8562 8.72178 30.914 9.03751C32.9718 9.35323 34.6377 9.90575 35.8136 10.6161C37.1855 11.4449 38.1164 12.5105 38.6063 13.8917C39.0963 15.273 39.3413 17.3647 39.3413 20.2851C39.3413 22.1795 39.2923 23.6002 39.1453 24.5869C38.9983 25.5735 38.7533 26.5207 38.3124 27.3494C37.5284 29.1254 35.9606 30.3488 33.6578 31.0592C31.3549 31.7696 27.7783 32.1247 22.9277 32.1247C18.0771 32.1247 14.6964 31.6906 12.8835 30.7829C12.0506 30.3883 11.2667 29.6384 10.4827 28.6123L9.89478 28.6123L9.89478 31.5328L0.193604 31.5328L0.193604 -6.10352e-05ZM19.8409 14.8784C16.2642 14.8784 13.8634 15.1546 12.6385 15.6677C11.8546 16.0229 11.3157 16.5359 11.0217 17.2068C10.7277 17.8778 10.5807 18.9828 10.5807 20.443C10.5807 22.0216 10.7767 23.1266 11.1197 23.7976C11.4626 24.4685 12.1486 24.9026 13.1775 25.1788C14.5984 25.613 16.9012 25.8103 20.0369 25.8103C23.7116 25.8103 26.1124 25.4946 27.3373 24.9026C27.9742 24.5869 28.4152 24.0738 28.6602 23.3634C28.9052 22.6531 29.0521 21.5875 29.0521 20.1667C29.0521 18.746 28.9052 17.641 28.5622 16.97C28.2192 16.2991 27.5823 15.865 26.7003 15.5493C25.3285 15.1152 23.0747 14.8784 19.9389 14.8784L19.8409 14.8784Z" fill="white"/>
<path d="M69.5719 24.3895L79.959 24.3895C79.665 26.8364 78.7341 28.5728 77.2153 29.6384C75.8924 30.5856 73.9815 31.217 71.5317 31.6117C69.0819 32.0063 65.4073 32.1642 60.5077 32.1642C56.49 32.1642 53.3543 32.0063 51.1985 31.6906C49.0426 31.3749 47.3278 30.8224 46.0539 30.0725C44.731 29.2438 43.8001 28.1782 43.3101 26.7969C42.8202 25.4156 42.5752 23.3239 42.5752 20.4824C42.5752 18.3513 42.6732 16.7727 42.8692 15.6677C43.0652 14.5626 43.4081 13.6155 43.9471 12.7472C45.074 10.9713 47.0828 9.78733 49.9736 9.27428C52.4724 8.8007 56.343 8.5639 61.5856 8.5639C66.2402 8.5639 69.4739 8.6823 71.3847 8.95856C74.7655 9.43214 77.0683 10.4188 78.3422 11.9974C79.616 13.576 80.253 16.1807 80.253 19.8905C80.253 20.2457 80.253 20.9955 80.204 22.14L53.0113 22.14C53.0113 23.2845 53.1093 24.1133 53.3053 24.5868C53.5013 25.0604 53.8442 25.4945 54.3832 25.8103C55.4121 26.4417 57.7639 26.718 61.3896 26.718C63.6924 26.718 65.4563 26.639 66.5832 26.4812C67.7101 26.3233 68.543 26.0865 68.935 25.7708C69.2779 25.4945 69.5229 25.021 69.6699 24.35L69.5719 24.3895ZM69.7189 17.6015C69.7189 16.7332 69.6209 16.1018 69.5229 15.7861C69.4249 15.4703 69.2289 15.1546 68.886 14.8784C68.004 14.1285 65.6032 13.7733 61.6836 13.7733C58.2049 13.7733 55.8531 14.0101 54.7262 14.5232C53.5993 15.0362 53.0113 16.0229 52.9133 17.6015L69.7189 17.6015Z" fill="white"/>
<path d="M84.0745 -6.10352e-05L94.4616 -6.08751e-05L94.4616 31.5722L84.0745 31.5722L84.0745 -6.10352e-05Z" fill="white"/>
<path d="M118.078 8.5639C122.781 8.5639 126.358 8.72177 128.71 8.99802C131.062 9.27428 132.874 9.8268 134.197 10.6161C135.569 11.4054 136.5 12.471 136.99 13.7733C137.48 15.0757 137.725 17.1279 137.725 19.9299C137.725 22.0216 137.676 23.5607 137.529 24.6263C137.382 25.6919 137.137 26.5996 136.745 27.4283C135.765 29.52 133.707 30.8618 130.67 31.4143C128.122 31.8879 123.957 32.1247 118.078 32.1247C112.884 32.1247 109.16 31.9669 106.956 31.6906C104.751 31.4143 102.938 30.7829 101.566 29.9147C100.292 29.0859 99.4103 27.9414 99.0183 26.5996C98.6263 25.2578 98.3813 22.9293 98.3813 19.6537C98.3813 17.7988 98.4793 16.378 98.6753 15.4309C98.8713 14.4837 99.2143 13.576 99.7042 12.7867C100.733 11.1686 102.546 10.0636 105.045 9.47161C107.544 8.87963 111.904 8.60337 118.078 8.60337L118.078 8.5639ZM118.176 14.8784C114.746 14.8784 112.394 15.0757 111.218 15.5098C110.336 15.8255 109.699 16.378 109.356 17.1279C109.013 17.8777 108.817 18.9828 108.817 20.4824C108.817 21.9821 108.964 23.0082 109.258 23.6397C109.552 24.2711 110.14 24.7447 111.022 25.0604C112.345 25.534 114.746 25.8103 118.176 25.8103C122.095 25.8103 124.643 25.4945 125.721 24.8236C126.799 24.1527 127.387 22.653 127.387 20.2851C127.387 18.7854 127.191 17.7199 126.848 17.049C126.505 16.378 125.868 15.865 124.986 15.5493C123.663 15.0757 121.409 14.8389 118.176 14.8389L118.176 14.8784Z" fill="white"/>
<path d="M141.693 9.15588L151.493 9.15588L151.493 12.5894L152.031 12.5894C152.962 11.1292 154.334 10.1031 156.098 9.47161C157.862 8.84016 160.459 8.5639 163.79 8.5639C167.122 8.5639 169.719 8.76123 171.63 9.19535C173.541 9.62947 175.109 10.3398 176.333 11.3659C177.607 12.4315 178.44 13.576 178.832 14.8389C179.224 16.1018 179.42 18.2724 179.42 21.3507L179.42 31.5327L169.033 31.5327L169.033 21.3507C169.033 19.5353 168.935 18.3118 168.788 17.6804C168.641 17.049 168.249 16.4964 167.71 16.0623C166.681 15.273 164.378 14.8784 160.753 14.8784C157.127 14.8784 154.775 15.3519 153.599 16.378C152.962 16.9306 152.57 17.562 152.374 18.3513C152.178 19.1406 152.08 20.5614 152.08 22.6136L152.08 31.5722L141.693 31.5722L141.693 9.15588Z" fill="white"/>
<path d="M222.39 40.8861L212.003 40.8861L212.003 28.6913L211.562 28.6913C210.435 30.0726 209.063 31.0198 207.495 31.4539C205.927 31.888 203.379 32.1643 199.852 32.1643C195.932 32.1643 192.943 32.0064 190.935 31.6512C188.926 31.296 187.309 30.6646 186.133 29.7964C185.055 29.007 184.32 27.9415 183.879 26.5997C183.438 25.2578 183.242 23.3635 183.242 20.7983C183.242 17.8778 183.487 15.6678 183.977 14.1681C184.467 12.6684 185.349 11.5239 186.574 10.7346C187.75 9.94528 189.367 9.39276 191.375 9.07704C193.384 8.76132 196.275 8.60345 200.048 8.60345C203.82 8.60345 206.368 8.84025 207.985 9.31383C209.602 9.78742 210.974 10.774 212.101 12.1948L212.64 12.1948L212.64 9.15597L222.439 9.15597L222.439 40.8861L222.39 40.8861ZM202.596 14.8784C198.774 14.8784 196.324 15.1942 195.197 15.8651C194.609 16.2203 194.217 16.7333 193.972 17.4832C193.727 18.233 193.629 19.338 193.629 20.7588C193.629 22.0217 193.776 22.9688 194.021 23.5608C194.266 24.1528 194.756 24.6264 195.491 24.9421C196.765 25.5341 199.166 25.8104 202.743 25.8104C206.711 25.8104 209.259 25.4946 210.337 24.8237C211.415 24.1528 212.003 22.6531 212.003 20.3247C212.003 18.9039 211.856 17.8384 211.562 17.2069C211.268 16.5755 210.729 16.0624 209.945 15.7072C208.769 15.1942 206.319 14.9179 202.596 14.8784Z" fill="white"/>
</svg>
