<svg width="40" height="30" viewBox="0 0 40 30" fill="none" xmlns="http://www.w3.org/2000/svg">
<path d="M19.7085 0.035652C25.876 0.035652 30.0828 0.17826 32.4 0.499128C35.7155 0.926953 37.7832 2.53129 38.5319 5.24085C39.031 7.09475 39.3162 10.2678 39.3162 14.6886C39.3162 19.1095 39.0666 22.3182 38.5319 24.1721C37.7832 26.8816 35.7512 28.486 32.4 28.9138C30.0828 29.2347 25.876 29.3773 19.7798 29.3773C13.6836 29.3773 9.29862 29.2347 6.98135 28.9138C3.66587 28.486 1.59815 26.8816 0.849497 24.1721C0.350392 22.3182 0.0651855 19.0738 0.0651855 14.5104C0.0651855 9.94692 0.314742 7.0591 0.849497 5.2052C1.59815 2.49564 3.63022 0.891301 6.98135 0.463476C9.26297 0.142608 13.5054 0 19.6729 0L19.7085 0.035652ZM19.7085 7.45127C15.1096 7.45127 12.3289 7.55823 11.402 7.8078C10.3325 8.09301 9.61947 8.6991 9.29862 9.6617C8.97777 10.6243 8.79952 12.5495 8.79952 15.4373C8.79952 17.1843 8.90647 18.4321 9.08472 19.2164C9.44122 20.6782 10.4751 21.4982 12.2219 21.7121C13.5054 21.8904 16.0365 21.9617 19.7798 21.9617C23.2736 21.9617 25.5908 21.8904 26.7673 21.7834C27.9437 21.6764 28.7637 21.3912 29.3341 20.9634C29.8332 20.5712 30.1897 20.0008 30.368 19.2521C30.5462 18.5034 30.6532 17.2556 30.6532 15.5086C30.6532 13.4765 30.5819 11.9434 30.4393 10.9808C30.2967 10.0182 30.0471 9.30518 29.6906 8.80605C29.2272 8.19997 28.4785 7.8078 27.409 7.66519C26.3395 7.52258 23.8083 7.45127 19.7798 7.45127H19.7085Z" fill="white"/>
</svg>
