<svg width="38" height="30" viewBox="0 0 38 30" fill="none" xmlns="http://www.w3.org/2000/svg">
<path d="M0.596191 0.463623H9.29487V13.5479C9.33052 16.5427 9.43747 18.4679 9.61572 19.2522C9.82962 20.3575 10.5426 21.1062 11.7904 21.4627C13.0382 21.8192 15.4624 21.9975 19.17 21.9975C22.1646 21.9975 24.268 21.9261 25.4088 21.7479C26.5496 21.5696 27.4052 21.2131 27.8687 20.714C28.1896 20.3575 28.4034 19.9296 28.546 19.3949C28.6887 18.8601 28.7956 18.0044 28.8313 16.7566C28.9026 15.4731 28.9382 14.4392 28.9382 13.6192V0.463623H37.6369V13.5479C37.5299 18.1114 37.3873 21.0705 37.2091 22.4966C36.8526 24.8853 35.7118 26.6322 33.7867 27.7731C32.6815 28.4148 31.1485 28.8426 29.1165 29.0566C27.0844 29.2705 23.8046 29.3774 19.2413 29.3774C15.8189 29.3774 13.1451 29.3061 11.2913 29.1992C9.43747 29.0922 7.79756 28.8426 6.4072 28.5218C3.34127 27.8087 1.55875 25.9548 1.05965 22.9957C0.881398 21.8548 0.738788 20.8566 0.703138 19.9296C0.667488 19.0027 0.631842 16.8636 0.596191 13.5479V0.463623Z" fill="white"/>
</svg>
