<svg width="37" height="30" viewBox="0 0 37 30" fill="none" xmlns="http://www.w3.org/2000/svg">
<path d="M0.812256 28.9853V0.463623H21.3112C25.6605 0.463623 28.263 0.499275 29.083 0.570579C30.9368 0.677535 32.3271 0.998404 33.1827 1.56884C34.0384 2.10362 34.6444 2.85231 35.0009 3.85057C35.3574 4.84882 35.5713 6.16795 35.5713 7.87925C35.5713 9.91141 35.2861 11.4445 34.7157 12.4071C34.1453 13.3697 33.1471 14.047 31.7211 14.4749C33.0045 14.6888 33.9314 15.0097 34.5375 15.4375C35.9278 16.3644 36.6408 18.3253 36.6408 21.3201C36.6408 23.6374 36.2843 25.3487 35.5713 26.4896C35.0722 27.2383 34.4305 27.8087 33.5749 28.1653C32.7193 28.5218 31.5785 28.7713 30.0455 28.8783C29.0473 28.9496 26.1596 28.9853 21.3825 29.0209H0.812256V28.9853ZM9.08313 11.694H21.3112C23.985 11.694 25.5892 11.5871 26.124 11.3731C26.8013 11.1236 27.1578 10.4105 27.1578 9.34098C27.1578 8.27142 26.73 7.52273 25.9101 7.30881C25.5892 7.23751 24.0563 7.16621 21.3112 7.16621H9.08313V11.694ZM9.08313 22.1044H21.3825C23.9137 22.1044 25.4466 22.1044 25.9101 22.0331C26.3735 21.9618 26.7657 21.9261 27.0865 21.8192C27.8352 21.534 28.2274 20.7853 28.2274 19.6444C28.2274 18.5036 27.7995 17.7549 26.9439 17.5409C26.6231 17.4696 24.7693 17.3983 21.3825 17.3983H9.08313V22.1044Z" fill="white"/>
</svg>
