<svg width="44" height="47" viewBox="0 0 44 47" fill="none" xmlns="http://www.w3.org/2000/svg">
<path fill-rule="evenodd" clip-rule="evenodd" d="M1 22.2667C1 34.0119 10.5214 43.5333 22.2667 43.5333C34.0119 43.5333 43.5333 34.0119 43.5333 22.2667C43.5333 10.5214 34.0119 1 22.2667 1C10.5214 1 1 10.5214 1 22.2667ZM25.9855 10.0001C25.2077 10.0001 24.4617 10.309 23.9116 10.859L13.5401 21.2298C13.2652 21.5048 13.1107 21.8778 13.1107 22.2667C13.1107 22.6556 13.2652 23.0286 13.5401 23.3036L23.9124 33.6752C24.4646 34.215 25.2074 34.5154 25.9797 34.511C26.752 34.5066 27.4914 34.1978 28.0374 33.6517C28.5834 33.1056 28.8921 32.3661 28.8963 31.5939C28.9006 30.8216 28.6001 30.0788 28.0601 29.5267L20.8001 22.2667L28.0594 15.0067C28.6093 14.4566 28.9182 13.7106 28.9182 12.9328C28.9182 12.155 28.6093 11.409 28.0594 10.859C27.5093 10.309 26.7633 10.0001 25.9855 10.0001Z" fill="#1DB0BD"/>
<path fill-rule="evenodd" clip-rule="evenodd" d="M38.7884 33.9087C41.2087 30.4687 42.5546 26.3882 42.6559 22.1833C42.7268 19.3909 42.2451 16.612 41.2386 14.0064C40.232 11.4007 38.7205 9.01962 36.7908 7L21.023 22.0262L27.7994 28.8025C28.3394 29.3547 28.6398 30.0974 28.6356 30.8697C28.6313 31.642 28.3227 32.3814 27.7767 32.9276C27.2306 33.4737 26.4912 33.7825 25.719 33.7868C24.9467 33.7912 24.2039 33.4909 23.6517 32.951L16.7748 26.0746L6.00001 36.3427C8.90175 39.3876 12.6412 41.5037 16.7456 42.4233C20.8499 43.343 25.1348 43.0249 29.0584 41.5093C32.982 39.9937 36.368 37.3487 38.7884 33.9087Z" fill="#3FD4E1"/>
<path d="M25.7186 35.0005C26.4439 35.0005 27.1528 34.7854 27.7558 34.3825C28.3588 33.9795 28.8288 33.4068 29.1062 32.7368C29.3837 32.0667 29.4563 31.3294 29.3147 30.6182C29.1732 29.9069 28.8239 29.2535 28.311 28.7408L21.5702 22L28.311 15.2592C28.9986 14.5716 29.3849 13.6389 29.3849 12.6665C29.3849 11.694 28.9986 10.7614 28.311 10.0738C27.6234 9.3864 26.6909 9.00024 25.7186 9.00024C24.7464 9.00024 23.8139 9.3864 23.1263 10.0738L12.7555 20.4446C12.5512 20.6489 12.3891 20.8914 12.2785 21.1584C12.1679 21.4253 12.111 21.7114 12.111 22.0004C12.111 22.2893 12.1679 22.5754 12.2785 22.8423C12.3891 23.1093 12.5512 23.3518 12.7555 23.5561L23.1263 33.9262C23.4658 34.2679 23.8698 34.5388 24.3148 34.7232C24.7598 34.9077 25.2369 35.0019 25.7186 35.0005ZM25.7186 10.4661C26.0077 10.4653 26.294 10.5219 26.561 10.6325C26.8279 10.7432 27.0703 10.9057 27.274 11.1107C27.4784 11.315 27.6404 11.5576 27.751 11.8245C27.8616 12.0914 27.9185 12.3776 27.9185 12.6665C27.9185 12.9554 27.8616 13.2415 27.751 13.5085C27.6404 13.7754 27.4784 14.018 27.274 14.2223L20.014 21.4823C19.8766 21.6198 19.7993 21.8063 19.7993 22.0007C19.7993 22.1952 19.8766 22.3817 20.014 22.5192L27.274 29.7792C27.4784 29.9835 27.6404 30.226 27.751 30.493C27.8616 30.7599 27.9185 31.046 27.9185 31.335C27.9185 31.6239 27.8616 31.91 27.751 32.1769C27.6404 32.4439 27.4784 32.6864 27.274 32.8907C26.8551 33.2909 26.298 33.5141 25.7186 33.5141C25.1393 33.5141 24.5822 33.2909 24.1632 32.8907L13.7924 22.5185C13.655 22.3809 13.5777 22.1944 13.5777 22C13.5777 21.8055 13.655 21.619 13.7924 21.4815L24.1632 11.1107C24.367 10.9058 24.6094 10.7433 24.8764 10.6326C25.1434 10.522 25.4296 10.4654 25.7186 10.4661Z" fill="#231F20"/>
<path d="M22 44C26.3512 44 30.6047 42.7097 34.2225 40.2923C37.8404 37.8749 40.6602 34.439 42.3253 30.419C43.9905 26.3991 44.4261 21.9756 43.5773 17.708C42.7284 13.4404 40.6331 9.52041 37.5563 6.44366C34.4796 3.3669 30.5596 1.27161 26.292 0.422734C22.0244 -0.426141 17.6009 0.00953247 13.581 1.67466C9.56099 3.33979 6.12506 6.15958 3.70767 9.77746C1.29028 13.3953 0 17.6488 0 22C0.00659943 27.8327 2.32656 33.4247 6.45094 37.5491C10.5753 41.6734 16.1673 43.9934 22 44ZM22 1.46668C26.0611 1.46668 30.031 2.67094 33.4077 4.92717C36.7844 7.1834 39.4162 10.3903 40.9703 14.1422C42.5244 17.8942 42.9311 22.0228 42.1388 26.0059C41.3465 29.9889 39.3909 33.6476 36.5193 36.5193C33.6476 39.3909 29.9889 41.3465 26.0058 42.1388C22.0228 42.9311 17.8942 42.5244 14.1422 40.9703C10.3903 39.4162 7.18338 36.7844 4.92715 33.4077C2.67092 30.031 1.46666 26.0611 1.46666 22C1.47288 16.5561 3.6382 11.337 7.4876 7.48761C11.337 3.63821 16.5561 1.47289 22 1.46668Z" fill="#231F20"/>
<path d="M36.9088 30.5379C36.8216 30.7119 36.8072 30.9135 36.8686 31.0982C36.93 31.2829 37.0623 31.4356 37.2363 31.5227C37.4104 31.6099 37.6119 31.6244 37.7966 31.563C37.9813 31.5015 38.134 31.3693 38.2212 31.1952C38.4634 30.7511 38.694 30.292 38.9028 29.8311C38.983 29.6539 38.9896 29.4521 38.9211 29.2701C38.8526 29.0881 38.7145 28.9407 38.5374 28.8605C38.3602 28.7802 38.1584 28.7736 37.9764 28.8421C37.7944 28.9107 37.647 29.0487 37.5668 29.2258C37.3737 29.652 37.1612 30.0766 36.9347 30.486L36.9088 30.5379Z" fill="#231F20"/>
<path d="M13.3019 38.3602C13.2217 38.5374 13.2151 38.7392 13.2836 38.9212C13.3521 39.1032 13.4902 39.2506 13.6673 39.3308C17.5474 41.0959 21.9076 41.5072 26.0493 40.4989C30.191 39.4906 33.8743 37.1211 36.5088 33.7701C36.6293 33.6173 36.6842 33.4228 36.6613 33.2295C36.6384 33.0362 36.5397 32.86 36.3868 32.7395C36.234 32.619 36.0395 32.5642 35.8462 32.587C35.6529 32.6099 35.4767 32.7087 35.3562 32.8615C32.9242 35.9544 29.5244 38.1414 25.7016 39.0721C21.8787 40.0029 17.8541 39.6236 14.2725 37.9949C14.0954 37.9146 13.8936 37.908 13.7116 37.9765C13.5296 38.0451 13.3822 38.1831 13.3019 38.3602Z" fill="#231F20"/>
</svg>
