<svg width="44" height="44" viewBox="0 0 44 44" fill="none" xmlns="http://www.w3.org/2000/svg">
<path fill-rule="evenodd" clip-rule="evenodd" d="M22.2674 42.5336C34.0126 42.5336 43.5341 33.0122 43.5341 21.2669C43.5341 9.52165 34.0126 0.000244141 22.2674 0.000244141C10.5221 0.000244141 1.00073 9.52165 1.00073 21.2669C1.00073 33.0122 10.5221 42.5336 22.2674 42.5336ZM15.0073 9.85908C14.4572 9.30917 13.7113 9.00024 12.9334 9.00024C12.1556 9.00024 11.4097 9.30917 10.8596 9.85908C10.3097 10.4092 10.0007 11.1551 10.0007 11.933C10.0007 12.7108 10.3097 13.4567 10.8596 14.0068L18.0037 21.1516C18.0017 21.1825 18.0007 21.2135 18.0007 21.2447C18.0007 21.2896 18.0028 21.3344 18.0068 21.3788L10.8588 28.5268C10.3189 29.0789 10.0184 29.8217 10.0226 30.594C10.0269 31.3663 10.3355 32.1057 10.8816 32.6518C11.4276 33.198 12.167 33.5067 12.9392 33.5111C13.7115 33.5155 14.4544 33.2152 15.0066 32.6753L21.9156 25.7668L28.8017 32.6524C29.3517 33.2023 30.0977 33.5112 30.8755 33.5112C31.6533 33.5112 32.3993 33.2023 32.9494 32.6524C33.4993 32.1023 33.8082 31.3563 33.8082 30.5785C33.8082 29.8007 33.4993 29.0547 32.9494 28.5047L25.8053 21.3599C25.8073 21.329 25.8083 21.2979 25.8083 21.2668C25.8083 21.2218 25.8062 21.1771 25.8021 21.1327L32.9501 13.9847C33.4901 13.4325 33.7906 12.6898 33.7863 11.9175C33.7821 11.1452 33.4734 10.4058 32.9274 9.85964C32.3814 9.31351 31.642 9.00474 30.8697 9.00035C30.0974 8.99597 29.3546 9.29631 28.8024 9.8362L21.8934 16.7447L15.0073 9.85908Z" fill="#1DB0BD"/>
<path fill-rule="evenodd" clip-rule="evenodd" d="M1.00358 22C1.1072 26.3021 2.52719 29.9805 5.00346 33.5C7.47973 37.0195 9.98923 39.4494 14.0035 41C18.0178 42.5506 23.1775 43.4237 27.3767 42.4828C31.576 41.5419 34.5347 39.6153 37.5035 36.5L33.1059 32.2466C32.9714 32.4977 32.7998 32.7301 32.5947 32.9352C32.0446 33.4851 31.2987 33.7941 30.5209 33.7941C29.743 33.7941 28.9971 33.4851 28.447 32.9352L21.5609 26.0496L14.6519 32.9581C14.0997 33.498 13.3568 33.7983 12.5846 33.794C11.8123 33.7896 11.0729 33.4808 10.5269 32.9347C9.98085 32.3885 9.67222 31.6491 9.66796 30.8768C9.66371 30.1046 9.96418 29.3618 10.5042 28.8097L17.6522 21.6616C17.6481 21.6172 17.646 21.5725 17.646 21.5275C17.646 21.4964 17.647 21.4653 17.649 21.4345L10.5049 14.2897C9.95499 13.7396 9.64606 12.9936 9.64606 12.2158C9.64606 11.4968 9.91006 10.8049 10.3844 10.2699L7.00361 7C5.02931 9.06631 4.0334 10.8341 3.00361 13.5C1.97381 16.1659 0.931068 19.143 1.00358 22Z" fill="#3FD4E1"/>
<path d="M12.6666 35.0003C11.9414 35.0003 11.2324 34.7852 10.6294 34.3822C10.0265 33.9793 9.55649 33.4066 9.27901 32.7365C9.00152 32.0665 8.92897 31.3292 9.07053 30.6179C9.21209 29.9066 9.5614 29.2533 10.0743 28.7405L16.8151 21.9997L10.0743 15.2589C9.38667 14.5713 9.00037 13.6387 9.00037 12.6662C9.00037 11.6938 9.38667 10.7612 10.0743 10.0736C10.7619 9.38616 11.6943 9 12.6666 9C13.6389 9 14.5713 9.38616 15.259 10.0736L25.6297 20.4443C25.8341 20.6486 25.9962 20.8912 26.1067 21.1581C26.2173 21.4251 26.2742 21.7112 26.2742 22.0001C26.2742 22.2891 26.2173 22.5752 26.1067 22.8421C25.9962 23.109 25.8341 23.3516 25.6297 23.5559L15.259 33.9259C14.9194 34.2677 14.5155 34.5386 14.0705 34.723C13.6255 34.9074 13.1483 35.0017 12.6666 35.0003ZM12.6666 10.4659C12.3776 10.4651 12.0913 10.5216 11.8243 10.6323C11.5573 10.7429 11.3149 10.9055 11.1112 11.1105C10.9069 11.3148 10.7448 11.5573 10.6342 11.8243C10.5236 12.0912 10.4667 12.3773 10.4667 12.6662C10.4667 12.9552 10.5236 13.2413 10.6342 13.5082C10.7448 13.7752 10.9069 14.0177 11.1112 14.222L18.3712 21.482C18.5087 21.6195 18.5859 21.806 18.5859 22.0005C18.5859 22.1949 18.5087 22.3814 18.3712 22.5189L11.1112 29.7789C10.9069 29.9832 10.7448 30.2258 10.6342 30.4927C10.5236 30.7597 10.4667 31.0458 10.4667 31.3347C10.4667 31.6237 10.5236 31.9098 10.6342 32.1767C10.7448 32.4436 10.9069 32.6862 11.1112 32.8905C11.5302 33.2906 12.0873 33.5139 12.6666 33.5139C13.246 33.5139 13.803 33.2906 14.222 32.8905L24.5928 22.5182C24.7303 22.3807 24.8075 22.1942 24.8075 21.9997C24.8075 21.8053 24.7303 21.6188 24.5928 21.4813L14.222 11.1105C14.0183 10.9055 13.7759 10.743 13.5089 10.6324C13.2419 10.5217 12.9556 10.4651 12.6666 10.4659Z" fill="#231F20"/>
<path d="M30.6077 8.99997C31.3329 8.99998 32.0419 9.21505 32.6448 9.618C33.2478 10.0209 33.7178 10.5937 33.9953 11.2637C34.2728 11.9338 34.3453 12.671 34.2038 13.3823C34.0622 14.0936 33.7129 14.7469 33.2 15.2597L26.4592 22.0005L33.2 28.7413C33.8876 29.4289 34.2739 30.3615 34.2739 31.334C34.2739 32.3064 33.8876 33.2391 33.2 33.9267C32.5124 34.6141 31.5799 35.0002 30.6077 35.0002C29.6354 35.0002 28.7029 34.6141 28.0153 33.9267L17.6445 23.5559C17.4402 23.3516 17.2781 23.1091 17.1675 22.8421C17.057 22.5752 17 22.2891 17 22.0001C17 21.7112 17.057 21.4251 17.1675 21.1581C17.2781 20.8912 17.4402 20.6487 17.6445 20.4444L28.0153 10.0743C28.3548 9.73259 28.7588 9.46167 29.2038 9.27725C29.6488 9.09283 30.126 8.99858 30.6077 8.99997ZM30.6077 33.5344C30.8967 33.5352 31.183 33.4786 31.45 33.368C31.717 33.2573 31.9594 33.0948 32.1631 32.8898C32.3674 32.6855 32.5295 32.4429 32.6401 32.176C32.7507 31.909 32.8076 31.6229 32.8076 31.334C32.8076 31.0451 32.7507 30.7589 32.6401 30.492C32.5295 30.2251 32.3674 29.9825 32.1631 29.7782L24.9031 22.5182C24.7656 22.3807 24.6884 22.1942 24.6884 21.9998C24.6884 21.8053 24.7656 21.6188 24.9031 21.4813L32.1631 14.2213C32.3674 14.017 32.5295 13.7745 32.6401 13.5075C32.7507 13.2406 32.8076 12.9545 32.8076 12.6655C32.8076 12.3766 32.7507 12.0905 32.6401 11.8235C32.5295 11.5566 32.3674 11.3141 32.1631 11.1098C31.7441 10.7096 31.187 10.4864 30.6077 10.4864C30.0283 10.4864 29.4713 10.7096 29.0523 11.1098L18.6815 21.482C18.544 21.6195 18.4668 21.806 18.4668 22.0005C18.4668 22.1949 18.544 22.3814 18.6815 22.519L29.0523 32.8898C29.256 33.0947 29.4984 33.2572 29.7654 33.3679C30.0324 33.4785 30.3187 33.5351 30.6077 33.5344Z" fill="#231F20"/>
<path d="M22 44C17.6488 44 13.3953 42.7097 9.77746 40.2923C6.15958 37.8749 3.33979 34.439 1.67466 30.419C0.00953247 26.3991 -0.426141 21.9756 0.422734 17.708C1.27161 13.4404 3.3669 9.52041 6.44366 6.44366C9.52041 3.3669 13.4404 1.27161 17.708 0.422734C21.9756 -0.426141 26.3991 0.00953247 30.419 1.67466C34.439 3.33979 37.8749 6.15958 40.2923 9.77746C42.7097 13.3953 44 17.6488 44 22C43.9934 27.8327 41.6734 33.4247 37.5491 37.5491C33.4247 41.6734 27.8327 43.9934 22 44ZM22 1.46668C17.9389 1.46668 13.969 2.67094 10.5923 4.92717C7.21561 7.1834 4.5838 10.3903 3.02968 14.1422C1.47556 17.8942 1.06894 22.0228 1.86122 26.0059C2.6535 29.9889 4.60911 33.6476 7.48075 36.5193C10.3524 39.3909 14.0111 41.3465 17.9942 42.1388C21.9772 42.9311 26.1058 42.5244 29.8578 40.9703C33.6097 39.4162 36.8166 36.7844 39.0728 33.4077C41.3291 30.031 42.5333 26.0611 42.5333 22C42.5271 16.5561 40.3618 11.337 36.5124 7.48761C32.663 3.63821 27.4439 1.47289 22 1.46668Z" fill="#231F20"/>
</svg>
